<?xml version="1.0" encoding="utf-8"?>
<!-- Generator: Adobe Illustrator 20.1.0, SVG Export Plug-In . SVG Version: 6.00 Build 0)  -->
<svg version="1.1" id="Layer_1" xmlns="http://www.w3.org/2000/svg" xmlns:xlink="http://www.w3.org/1999/xlink" x="0px" y="0px"
	 viewBox="0 0 483 102" style="enable-background:new 0 0 483 102;" xml:space="preserve">
<style type="text/css">
	.st0{fill:#CCE5FF;}
	.st1{fill:#274867;}
	.st2{fill:none;stroke:#274867;stroke-miterlimit:10;}
</style>
<rect x="428" y="0.5" class="st0" width="20.5" height="101.5"/>
<g>
	<path class="st1" d="M11.8,12.2c1,0.2,1.6,0.7,1.6,1.8c0,1-0.8,1.9-2.4,1.9c-1.5,0-2.5-0.8-2.6-1.9h0.8c0.1,0.9,0.9,1.2,1.8,1.2
		c0.9,0,1.6-0.4,1.6-1.2c0-0.7-0.5-1-1.1-1.1c-0.3-0.1-1-0.2-1.3-0.3C9.3,12.5,8.7,12,8.7,11c0-1,0.8-1.8,2.3-1.8
		c1.3,0,2.2,0.7,2.3,1.7h-0.8c-0.2-0.6-0.6-1-1.5-1c-0.8,0-1.4,0.4-1.4,1c0,0.6,0.5,0.8,1.1,0.9C10.9,12,11.5,12.1,11.8,12.2z"/>
	<path class="st1" d="M16.9,11.2v0.7h-1.1v2.5c0,0.5,0.2,0.7,0.8,0.7h0.3v0.7h-0.4c-1,0-1.6-0.3-1.6-1.3v-2.6h-0.8v-0.7H15V9.9h0.8
		v1.4H16.9z"/>
	<path class="st1" d="M22,13.5h-3.5c0,1.1,0.5,1.7,1.4,1.7c0.6,0,1-0.3,1.2-0.7h0.8c-0.1,0.8-0.8,1.4-1.9,1.4c-1.4,0-2.2-1-2.2-2.4
		c0-1.4,0.8-2.3,2.2-2.3c1.4,0,2,1,2,2.1V13.5z M18.6,12.9h2.6c0-0.6-0.5-1.1-1.3-1.1C19.2,11.8,18.7,12.3,18.6,12.9z"/>
	<path class="st1" d="M24,11.2v0.5h0.2c0.3-0.3,0.7-0.6,1.4-0.6c1.3,0,2,1,2,2.4c0,1.4-0.7,2.4-2,2.4c-0.7,0-1.1-0.3-1.4-0.6H24v2.3
		h-0.8v-6.3H24z M24,13.5c0,0.9,0.4,1.7,1.4,1.7c0.9,0,1.4-0.7,1.4-1.7s-0.5-1.7-1.4-1.7C24.4,11.8,24,12.6,24,13.5z"/>
	<path class="st1" d="M14.5,27.6c0,1.8-1,3.3-3,3.3c-2,0-3-1.5-3-3.3s1-3.3,3-3.3C13.4,24.2,14.5,25.7,14.5,27.6z M13.7,27.6
		c0-1.3-0.6-2.6-2.2-2.6c-1.5,0-2.2,1.3-2.2,2.6s0.6,2.6,2.2,2.6C13,30.2,13.7,28.9,13.7,27.6z"/>
	<path class="st1" d="M18.3,27h-0.4c-0.9,0-1.4,0.5-1.4,1.5v2.3h-0.8v-4.5h0.7v0.5h0.2c0.2-0.3,0.7-0.5,1.3-0.5h0.3V27z"/>
	<path class="st1" d="M19.3,25.1v-0.8h0.8v0.8H19.3z M20.1,30.8h-0.8v-4.5h0.8V30.8z"/>
	<path class="st1" d="M25.7,26.2v4.3c0,1.3-0.8,2.1-2.1,2.1c-1.2,0-1.9-0.5-2.1-1.4h0.8c0.1,0.5,0.6,0.7,1.3,0.7
		c0.9,0,1.4-0.6,1.4-1.5v-0.4h-0.2c-0.2,0.3-0.7,0.6-1.4,0.6c-1.3,0-2-1-2-2.3c0-1.3,0.8-2.3,2-2.3c0.7,0,1.1,0.3,1.4,0.6h0.2v-0.5
		H25.7z M24.9,28.4c0-0.9-0.5-1.7-1.4-1.7c-0.9,0-1.4,0.7-1.4,1.7c0,1,0.5,1.6,1.4,1.6C24.5,30.1,24.9,29.3,24.9,28.4z"/>
	<path class="st1" d="M27.1,25.1v-0.8h0.8v0.8H27.1z M27.9,30.8h-0.8v-4.5h0.8V30.8z"/>
	<path class="st1" d="M32.7,30.8v-2.7c0-0.8-0.4-1.3-1.2-1.3c-0.8,0-1.4,0.7-1.4,1.5v2.5h-0.8v-4.5h0.7v0.5h0.2
		c0.3-0.4,0.8-0.6,1.4-0.6c1.1,0,1.7,0.7,1.7,1.8v2.9H32.7z"/>
	<path class="st1" d="M37.7,30.3h-0.2c-0.3,0.4-0.8,0.6-1.4,0.6c-1,0-1.6-0.7-1.6-1.5c0-0.7,0.5-1.5,1.7-1.5h1.5v-0.2
		c0-0.5-0.3-0.9-1.1-0.9c-0.7,0-1,0.3-1.1,0.7h-0.8c0.1-0.8,0.8-1.3,1.8-1.3c1.1,0,1.9,0.5,1.9,1.6v3.1h-0.7V30.3z M37.7,28.9v-0.4
		h-1.4c-0.7,0-1.1,0.3-1.1,0.9c0,0.5,0.4,0.8,1.1,0.8C37.1,30.2,37.7,29.7,37.7,28.9z"/>
	<path class="st1" d="M40.6,24.2v6.5h-0.8v-6.5H40.6z"/>
	<path class="st1" d="M47.9,30.8v-2.7c0-0.8-0.4-1.3-1.2-1.3c-0.8,0-1.4,0.7-1.4,1.5v2.5h-0.8v-4.5h0.7v0.5h0.2
		c0.3-0.4,0.8-0.6,1.4-0.6c1.1,0,1.7,0.7,1.7,1.8v2.9H47.9z"/>
	<path class="st1" d="M50.7,26.2V29c0,0.8,0.4,1.3,1.2,1.3c0.8,0,1.4-0.7,1.4-1.5v-2.5H54v4.5h-0.7v-0.5h-0.2
		c-0.3,0.4-0.8,0.6-1.4,0.6c-1.1,0-1.7-0.7-1.7-1.8v-2.9H50.7z"/>
	<path class="st1" d="M61.7,27.8v2.9H61v-2.9c0-0.7-0.3-1.1-0.9-1.1c-0.7,0-1.1,0.5-1.1,1.3v2.7h-0.8v-2.8c0-0.7-0.3-1.1-0.9-1.1
		c-0.8,0-1.1,0.6-1.1,1.5v2.5h-0.8v-4.5h0.7v0.4h0.2c0.2-0.4,0.6-0.6,1.2-0.6c0.5,0,1,0.2,1.2,0.6H59c0.3-0.4,0.7-0.6,1.3-0.6
		C61.3,26.1,61.7,26.8,61.7,27.8z"/>
	<path class="st1" d="M67.5,28.5c0,1.3-0.7,2.4-2,2.4c-0.7,0-1.2-0.3-1.4-0.6h-0.2v0.5h-0.7v-6.5h0.8v2.5h0.2
		c0.2-0.3,0.7-0.6,1.4-0.6C66.7,26.1,67.5,27.1,67.5,28.5z M66.7,28.5c0-1-0.5-1.7-1.4-1.7c-1,0-1.4,0.8-1.4,1.7
		c0,0.9,0.4,1.7,1.4,1.7C66.2,30.2,66.7,29.5,66.7,28.5z"/>
	<path class="st1" d="M72.6,28.5h-3.5c0,1.1,0.5,1.7,1.4,1.7c0.6,0,1-0.3,1.2-0.7h0.8c-0.1,0.8-0.8,1.4-1.9,1.4
		c-1.4,0-2.2-1-2.2-2.4c0-1.4,0.8-2.3,2.2-2.3c1.4,0,2,1,2,2.1V28.5z M69.2,27.9h2.6c0-0.6-0.5-1.1-1.3-1.1
		C69.7,26.8,69.3,27.3,69.2,27.9z"/>
	<path class="st1" d="M76.4,27H76c-0.9,0-1.4,0.5-1.4,1.5v2.3h-0.8v-4.5h0.7v0.5h0.2c0.2-0.3,0.7-0.5,1.3-0.5h0.3V27z"/>
	<path class="st1" d="M77.3,27.3v-1h0.9v1H77.3z M77.3,30.8v-1h0.9v1H77.3z"/>
	<path class="st1" d="M11.2,39.4c2,0,3,1.3,3,3.2c0,1.9-1,3.2-3,3.2H8.8v-6.4H11.2z M11.2,45c1.6,0,2.2-1.1,2.2-2.5
		s-0.6-2.5-2.2-2.5H9.6v5H11.2z"/>
	<path class="st1" d="M18,42h-0.4c-0.9,0-1.4,0.5-1.4,1.5v2.3h-0.8v-4.5h0.7v0.5h0.2c0.2-0.3,0.7-0.5,1.3-0.5H18V42z"/>
	<path class="st1" d="M23.2,43.5c0,1.3-0.8,2.4-2.2,2.4c-1.4,0-2.2-1-2.2-2.4s0.8-2.4,2.2-2.4C22.4,41.1,23.2,42.2,23.2,43.5z
		 M22.4,43.5c0-0.9-0.5-1.7-1.5-1.7c-1,0-1.5,0.8-1.5,1.7c0,0.9,0.5,1.7,1.5,1.7C22,45.2,22.4,44.4,22.4,43.5z"/>
	<path class="st1" d="M25.1,41.2v0.5h0.2c0.3-0.3,0.7-0.6,1.4-0.6c1.3,0,2,1,2,2.4c0,1.4-0.7,2.4-2,2.4c-0.7,0-1.1-0.3-1.4-0.6h-0.2
		v2.3h-0.8v-6.3H25.1z M25.2,43.5c0,0.9,0.4,1.7,1.4,1.7c0.9,0,1.4-0.7,1.4-1.7s-0.5-1.7-1.4-1.7C25.6,41.8,25.2,42.6,25.2,43.5z"/>
	<path class="st1" d="M34.6,41.2v0.7h-1.1v2.5c0,0.5,0.2,0.7,0.8,0.7h0.3v0.7h-0.4c-1,0-1.6-0.3-1.6-1.3v-2.6h-0.8v-0.7h0.8v-1.4
		h0.8v1.4H34.6z"/>
	<path class="st1" d="M39.2,45.8v-2.7c0-0.8-0.4-1.3-1.2-1.3c-0.8,0-1.4,0.7-1.4,1.5v2.5h-0.8v-6.5h0.8v2.5h0.2
		c0.2-0.4,0.7-0.6,1.4-0.6c1.1,0,1.7,0.7,1.7,1.8v2.9H39.2z"/>
	<path class="st1" d="M45.3,43.5h-3.5c0,1.1,0.5,1.7,1.4,1.7c0.6,0,1-0.3,1.2-0.7h0.8c-0.1,0.8-0.8,1.4-1.9,1.4
		c-1.4,0-2.2-1-2.2-2.4c0-1.4,0.8-2.3,2.2-2.3c1.4,0,2,1,2,2.1V43.5z M41.8,42.9h2.6c0-0.6-0.5-1.1-1.3-1.1
		C42.4,41.8,41.9,42.3,41.8,42.9z"/>
	<path class="st1" d="M49.7,39.2v6.5h-0.8v-6.5H49.7z"/>
	<path class="st1" d="M54.1,45.3h-0.2c-0.3,0.4-0.8,0.6-1.4,0.6c-1,0-1.6-0.7-1.6-1.5c0-0.7,0.5-1.5,1.7-1.5h1.5v-0.2
		c0-0.5-0.3-0.9-1.1-0.9c-0.7,0-1,0.3-1.1,0.7h-0.8c0.1-0.8,0.8-1.3,1.8-1.3c1.1,0,1.9,0.5,1.9,1.6v3.1h-0.7V45.3z M54.1,43.9v-0.4
		h-1.4c-0.7,0-1.1,0.3-1.1,0.9c0,0.5,0.4,0.8,1.1,0.8C53.4,45.2,54.1,44.7,54.1,43.9z"/>
	<path class="st1" d="M57.9,43l0.5,0.1c0.8,0.1,1.3,0.5,1.3,1.4c0,0.7-0.6,1.4-1.9,1.4c-1.3,0-1.9-0.6-2-1.4h0.8
		c0.1,0.5,0.5,0.8,1.2,0.8s1.1-0.2,1.1-0.7c0-0.4-0.3-0.6-0.8-0.7l-1-0.2c-0.6-0.1-1.1-0.5-1.1-1.1c0-0.8,0.6-1.3,1.8-1.3
		c1.1,0,1.7,0.5,1.8,1.3h-0.8c-0.1-0.4-0.5-0.6-1.1-0.6c-0.6,0-1,0.2-1,0.6c0,0.4,0.2,0.5,0.7,0.6L57.9,43z"/>
	<path class="st1" d="M63,41.2v0.7h-1.1v2.5c0,0.5,0.2,0.7,0.8,0.7H63v0.7h-0.4c-1,0-1.6-0.3-1.6-1.3v-2.6h-0.8v-0.7h0.8v-1.4h0.8
		v1.4H63z"/>
	<path class="st1" d="M70.8,39.2v6.5h-0.7v-0.5h-0.2c-0.3,0.3-0.7,0.6-1.4,0.6c-1.3,0-2-1-2-2.4c0-1.4,0.7-2.4,2-2.4
		c0.7,0,1.1,0.3,1.4,0.6h0.2v-2.5H70.8z M70.1,43.5c0-0.9-0.4-1.7-1.4-1.7c-0.9,0-1.4,0.7-1.4,1.7s0.5,1.7,1.4,1.7
		C69.7,45.2,70.1,44.4,70.1,43.5z"/>
	<path class="st1" d="M72.3,40.1v-0.8h0.8v0.8H72.3z M73.1,45.8h-0.8v-4.5h0.8V45.8z"/>
	<path class="st1" d="M78.7,41.2v4.3c0,1.3-0.8,2.1-2.1,2.1c-1.2,0-1.9-0.5-2.1-1.4h0.8c0.1,0.5,0.6,0.7,1.3,0.7
		c0.9,0,1.4-0.6,1.4-1.5v-0.4h-0.2c-0.2,0.3-0.7,0.6-1.4,0.6c-1.3,0-2-1-2-2.3c0-1.3,0.8-2.3,2-2.3c0.7,0,1.1,0.3,1.4,0.6h0.2v-0.5
		H78.7z M77.9,43.4c0-0.9-0.5-1.7-1.4-1.7c-0.9,0-1.4,0.7-1.4,1.7c0,1,0.5,1.6,1.4,1.6C77.5,45.1,77.9,44.3,77.9,43.4z"/>
	<path class="st1" d="M80.1,40.1v-0.8H81v0.8H80.1z M80.9,45.8h-0.8v-4.5h0.8V45.8z"/>
	<path class="st1" d="M84.6,41.2v0.7h-1.1v2.5c0,0.5,0.2,0.7,0.8,0.7h0.3v0.7h-0.4c-1,0-1.6-0.3-1.6-1.3v-2.6h-0.8v-0.7h0.8v-1.4
		h0.8v1.4H84.6z"/>
	<path class="st1" d="M85.8,42.3v-1h0.9v1H85.8z M85.8,45.8v-1h0.9v1H85.8z"/>
	<path class="st1" d="M8.8,54.4h1.4l1.6,3H12l1.6-3h1.4v6.4h-0.8v-5.5h-0.2l-1.6,3.1h-0.8l-1.6-3.1H9.6v5.5H8.8V54.4z"/>
	<path class="st1" d="M17.2,56.2V59c0,0.8,0.4,1.3,1.2,1.3c0.8,0,1.4-0.7,1.4-1.5v-2.5h0.8v4.5h-0.7v-0.5h-0.2
		c-0.3,0.4-0.8,0.6-1.4,0.6c-1.1,0-1.7-0.7-1.7-1.8v-2.9H17.2z"/>
	<path class="st1" d="M22.7,54.2v6.5h-0.8v-6.5H22.7z"/>
	<path class="st1" d="M26.4,56.2v0.7h-1.1v2.5c0,0.5,0.2,0.7,0.8,0.7h0.3v0.7H26c-1,0-1.6-0.3-1.6-1.3v-2.6h-0.8v-0.7h0.8v-1.4h0.8
		v1.4H26.4z"/>
	<path class="st1" d="M27.6,55.1v-0.8h0.8v0.8H27.6z M28.4,60.8h-0.8v-4.5h0.8V60.8z"/>
	<path class="st1" d="M30.7,56.2v0.5h0.2c0.3-0.3,0.7-0.6,1.4-0.6c1.3,0,2,1,2,2.4c0,1.4-0.7,2.4-2,2.4c-0.7,0-1.1-0.3-1.4-0.6h-0.2
		v2.3h-0.8v-6.3H30.7z M30.7,58.5c0,0.9,0.4,1.7,1.4,1.7c0.9,0,1.4-0.7,1.4-1.7s-0.5-1.7-1.4-1.7C31.1,56.8,30.7,57.6,30.7,58.5z"/>
	<path class="st1" d="M36.2,54.2v6.5h-0.8v-6.5H36.2z"/>
	<path class="st1" d="M38.1,62.6l0.9-2.2l-1.9-4.1H38l1.4,3h0.2l1.3-3h0.8l-2.7,6.3H38.1z"/>
	<path class="st1" d="M49.2,58.5c0,1.3-0.8,2.4-2.2,2.4c-1.4,0-2.2-1-2.2-2.4s0.8-2.4,2.2-2.4C48.4,56.1,49.2,57.2,49.2,58.5z
		 M48.5,58.5c0-0.9-0.5-1.7-1.5-1.7c-1,0-1.5,0.8-1.5,1.7c0,0.9,0.5,1.7,1.5,1.7C48,60.2,48.5,59.4,48.5,58.5z"/>
	<path class="st1" d="M54.5,54.2v6.5h-0.7v-0.5h-0.2c-0.3,0.3-0.7,0.6-1.4,0.6c-1.3,0-2-1-2-2.4c0-1.4,0.7-2.4,2-2.4
		c0.7,0,1.1,0.3,1.4,0.6h0.2v-2.5H54.5z M53.7,58.5c0-0.9-0.4-1.7-1.4-1.7c-0.9,0-1.4,0.7-1.4,1.7s0.5,1.7,1.4,1.7
		C53.3,60.2,53.7,59.4,53.7,58.5z"/>
	<path class="st1" d="M60,54.2v6.5h-0.7v-0.5h-0.2c-0.3,0.3-0.7,0.6-1.4,0.6c-1.3,0-2-1-2-2.4c0-1.4,0.7-2.4,2-2.4
		c0.7,0,1.1,0.3,1.4,0.6h0.2v-2.5H60z M59.3,58.5c0-0.9-0.4-1.7-1.4-1.7c-0.9,0-1.4,0.7-1.4,1.7s0.5,1.7,1.4,1.7
		C58.8,60.2,59.3,59.4,59.3,58.5z"/>
	<path class="st1" d="M68,54.2v6.5h-0.7v-0.5h-0.2c-0.3,0.3-0.7,0.6-1.4,0.6c-1.3,0-2-1-2-2.4c0-1.4,0.7-2.4,2-2.4
		c0.7,0,1.1,0.3,1.4,0.6h0.2v-2.5H68z M67.3,58.5c0-0.9-0.4-1.7-1.4-1.7c-0.9,0-1.4,0.7-1.4,1.7s0.5,1.7,1.4,1.7
		C66.9,60.2,67.3,59.4,67.3,58.5z"/>
	<path class="st1" d="M69.5,55.1v-0.8h0.8v0.8H69.5z M70.3,60.8h-0.8v-4.5h0.8V60.8z"/>
	<path class="st1" d="M75.9,56.2v4.3c0,1.3-0.8,2.1-2.1,2.1c-1.2,0-1.9-0.5-2.1-1.4h0.8c0.1,0.5,0.6,0.7,1.3,0.7
		c0.9,0,1.4-0.6,1.4-1.5v-0.4h-0.2c-0.2,0.3-0.7,0.6-1.4,0.6c-1.3,0-2-1-2-2.3c0-1.3,0.8-2.3,2-2.3c0.7,0,1.1,0.3,1.4,0.6h0.2v-0.5
		H75.9z M75.1,58.4c0-0.9-0.5-1.7-1.4-1.7c-0.9,0-1.4,0.7-1.4,1.7c0,1,0.5,1.6,1.4,1.6C74.7,60.1,75.1,59.3,75.1,58.4z"/>
	<path class="st1" d="M77.3,55.1v-0.8h0.8v0.8H77.3z M78.1,60.8h-0.8v-4.5h0.8V60.8z"/>
	<path class="st1" d="M81.8,56.2v0.7h-1.1v2.5c0,0.5,0.2,0.7,0.8,0.7h0.3v0.7h-0.4c-1,0-1.6-0.3-1.6-1.3v-2.6h-0.8v-0.7h0.8v-1.4
		h0.8v1.4H81.8z"/>
	<path class="st1" d="M84.8,58l0.5,0.1c0.8,0.1,1.3,0.5,1.3,1.4c0,0.7-0.6,1.4-1.9,1.4c-1.3,0-1.9-0.6-2-1.4h0.8
		c0.1,0.5,0.5,0.8,1.2,0.8s1.1-0.2,1.1-0.7c0-0.4-0.3-0.6-0.8-0.7l-1-0.2c-0.6-0.1-1.1-0.5-1.1-1.1c0-0.8,0.6-1.3,1.8-1.3
		c1.1,0,1.7,0.5,1.8,1.3h-0.8c-0.1-0.4-0.5-0.6-1.1-0.6c-0.6,0-1,0.2-1,0.6c0,0.4,0.2,0.5,0.7,0.6L84.8,58z"/>
	<path class="st1" d="M94.6,58.5c0,1.3-0.7,2.4-2,2.4c-0.7,0-1.2-0.3-1.4-0.6H91v0.5h-0.7v-6.5H91v2.5h0.2c0.2-0.3,0.7-0.6,1.4-0.6
		C93.8,56.1,94.6,57.1,94.6,58.5z M93.8,58.5c0-1-0.5-1.7-1.4-1.7c-1,0-1.4,0.8-1.4,1.7c0,0.9,0.4,1.7,1.4,1.7
		C93.3,60.2,93.8,59.5,93.8,58.5z"/>
	<path class="st1" d="M96.2,62.6l0.9-2.2l-1.9-4.1H96l1.4,3h0.2l1.3-3h0.8L97,62.6H96.2z"/>
	<path class="st1" d="M102.8,56.2c0.1-1.3,1-1.9,2.1-1.9c1.2,0,2,0.7,2,1.9c0,0.9-0.6,1.7-1.4,2.3l-1.6,1.3v0.2h3.2v0.7h-4.3v-0.9
		l0.9-0.8c0.5-0.4,1.1-0.9,1.4-1.2c0.4-0.4,1-0.9,1-1.6c0-0.8-0.5-1.2-1.3-1.2c-0.7,0-1.2,0.4-1.3,1.2H102.8z"/>
	<path class="st1" d="M108.3,57.3v-1h0.9v1H108.3z M108.3,60.8v-1h0.9v1H108.3z"/>
	<path class="st1" d="M11.8,72.2c1,0.2,1.6,0.7,1.6,1.8c0,1-0.8,1.9-2.4,1.9c-1.5,0-2.5-0.8-2.6-1.9h0.8c0.1,0.9,0.9,1.2,1.8,1.2
		c0.9,0,1.6-0.4,1.6-1.2c0-0.7-0.5-1-1.1-1.1c-0.3-0.1-1-0.2-1.3-0.3C9.3,72.5,8.7,72,8.7,71c0-1,0.8-1.8,2.3-1.8
		c1.3,0,2.2,0.7,2.3,1.7h-0.8c-0.2-0.6-0.6-1-1.5-1c-0.8,0-1.4,0.4-1.4,1c0,0.6,0.5,0.8,1.1,0.9C10.9,72,11.5,72.1,11.8,72.2z"/>
	<path class="st1" d="M15.4,71.2V74c0,0.8,0.4,1.3,1.2,1.3c0.8,0,1.4-0.7,1.4-1.5v-2.5h0.8v4.5h-0.7v-0.5h-0.2
		c-0.3,0.4-0.8,0.6-1.4,0.6c-1.1,0-1.7-0.7-1.7-1.8v-2.9H15.4z"/>
	<path class="st1" d="M24.5,73.5c0,1.3-0.7,2.4-2,2.4c-0.7,0-1.2-0.3-1.4-0.6h-0.2v0.5h-0.7v-6.5h0.8v2.5h0.2
		c0.2-0.3,0.7-0.6,1.4-0.6C23.7,71.1,24.5,72.1,24.5,73.5z M23.7,73.5c0-1-0.5-1.7-1.4-1.7c-1,0-1.4,0.8-1.4,1.7
		c0,0.9,0.4,1.7,1.4,1.7C23.2,75.2,23.7,74.5,23.7,73.5z"/>
	<path class="st1" d="M27.9,71.2v0.7h-1.1v2.5c0,0.5,0.2,0.7,0.8,0.7h0.3v0.7h-0.4c-1,0-1.6-0.3-1.6-1.3v-2.6h-0.8v-0.7H26v-1.4h0.8
		v1.4H27.9z"/>
	<path class="st1" d="M31.7,72h-0.4c-0.9,0-1.4,0.5-1.4,1.5v2.3h-0.8v-4.5h0.7v0.5h0.2c0.2-0.3,0.7-0.5,1.3-0.5h0.3V72z"/>
	<path class="st1" d="M35.6,75.3h-0.2c-0.3,0.4-0.8,0.6-1.4,0.6c-1,0-1.6-0.7-1.6-1.5c0-0.7,0.5-1.5,1.7-1.5h1.5v-0.2
		c0-0.5-0.3-0.9-1.1-0.9c-0.7,0-1,0.3-1.1,0.7h-0.8c0.1-0.8,0.8-1.3,1.8-1.3c1.1,0,1.9,0.5,1.9,1.6v3.1h-0.7V75.3z M35.6,73.9v-0.4
		h-1.4c-0.7,0-1.1,0.3-1.1,0.9c0,0.5,0.4,0.8,1.1,0.8C35,75.2,35.6,74.7,35.6,73.9z"/>
	<path class="st1" d="M41.6,74.4c-0.2,0.9-0.9,1.5-1.9,1.5c-1.4,0-2.2-1-2.2-2.4c0-1.4,0.8-2.4,2.2-2.4c1.1,0,1.7,0.6,1.9,1.4h-0.8
		c-0.1-0.5-0.5-0.8-1.1-0.8c-1,0-1.4,0.8-1.4,1.7c0,0.9,0.4,1.7,1.4,1.7c0.6,0,1-0.3,1.1-0.8H41.6z"/>
	<path class="st1" d="M44.9,71.2v0.7h-1.1v2.5c0,0.5,0.2,0.7,0.8,0.7h0.3v0.7h-0.4c-1,0-1.6-0.3-1.6-1.3v-2.6h-0.8v-0.7H43v-1.4h0.8
		v1.4H44.9z"/>
	<path class="st1" d="M48.3,71.5c0-1.2,0.8-2.2,2.1-2.2s2.3,0.8,2.3,3.1c0,1.9-0.7,3.4-2.4,3.4c-1.1,0-1.7-0.6-1.9-1.5h0.8
		c0.2,0.5,0.5,0.8,1.1,0.8c1,0,1.6-0.9,1.6-2.2h-0.2c-0.2,0.3-0.7,0.6-1.5,0.6C49.2,73.6,48.3,72.7,48.3,71.5z M49.1,71.5
		c0,0.9,0.6,1.4,1.4,1.4c0.8,0,1.4-0.5,1.4-1.4c0-0.9-0.6-1.4-1.4-1.4C49.7,70.1,49.1,70.5,49.1,71.5z"/>
	<path class="st1" d="M57.6,71.9v3.9h-0.8v-3.9H56v-0.7h0.8v-0.5c0-1,0.6-1.5,1.6-1.5h0.4v0.7h-0.4c-0.6,0-0.8,0.4-0.8,0.8v0.5h1.2
		v0.7H57.6z"/>
	<path class="st1" d="M62.4,72H62c-0.9,0-1.4,0.5-1.4,1.5v2.3h-0.8v-4.5h0.7v0.5h0.2c0.2-0.3,0.7-0.5,1.3-0.5h0.3V72z"/>
	<path class="st1" d="M67.6,73.5c0,1.3-0.8,2.4-2.2,2.4c-1.4,0-2.2-1-2.2-2.4s0.8-2.4,2.2-2.4C66.8,71.1,67.6,72.2,67.6,73.5z
		 M66.8,73.5c0-0.9-0.5-1.7-1.5-1.7c-1,0-1.5,0.8-1.5,1.7c0,0.9,0.5,1.7,1.5,1.7C66.4,75.2,66.8,74.4,66.8,73.5z"/>
	<path class="st1" d="M75.1,72.8v2.9h-0.8v-2.9c0-0.7-0.3-1.1-0.9-1.1c-0.7,0-1.1,0.5-1.1,1.3v2.7h-0.8v-2.8c0-0.7-0.3-1.1-0.9-1.1
		c-0.8,0-1.1,0.6-1.1,1.5v2.5h-0.8v-4.5h0.7v0.4h0.2c0.2-0.4,0.6-0.6,1.2-0.6c0.5,0,1,0.2,1.2,0.6h0.2c0.3-0.4,0.7-0.6,1.3-0.6
		C74.6,71.1,75.1,71.8,75.1,72.8z"/>
	<path class="st1" d="M82.2,75.8v-2.7c0-0.8-0.4-1.3-1.2-1.3c-0.8,0-1.4,0.7-1.4,1.5v2.5H79v-4.5h0.7v0.5h0.2
		c0.3-0.4,0.8-0.6,1.4-0.6c1.1,0,1.7,0.7,1.7,1.8v2.9H82.2z"/>
	<path class="st1" d="M85.1,71.2V74c0,0.8,0.4,1.3,1.2,1.3c0.8,0,1.4-0.7,1.4-1.5v-2.5h0.8v4.5h-0.7v-0.5h-0.2
		c-0.3,0.4-0.8,0.6-1.4,0.6c-1.1,0-1.7-0.7-1.7-1.8v-2.9H85.1z"/>
	<path class="st1" d="M96.1,72.8v2.9h-0.8v-2.9c0-0.7-0.3-1.1-0.9-1.1c-0.7,0-1.1,0.5-1.1,1.3v2.7h-0.8v-2.8c0-0.7-0.3-1.1-0.9-1.1
		c-0.8,0-1.1,0.6-1.1,1.5v2.5h-0.8v-4.5h0.7v0.4h0.2c0.2-0.4,0.6-0.6,1.2-0.6c0.5,0,1,0.2,1.2,0.6h0.2c0.3-0.4,0.7-0.6,1.3-0.6
		C95.6,71.1,96.1,71.8,96.1,72.8z"/>
	<path class="st1" d="M101.8,73.5c0,1.3-0.7,2.4-2,2.4c-0.7,0-1.2-0.3-1.4-0.6h-0.2v0.5h-0.7v-6.5h0.8v2.5h0.2
		c0.2-0.3,0.7-0.6,1.4-0.6C101.1,71.1,101.8,72.1,101.8,73.5z M101.1,73.5c0-1-0.5-1.7-1.4-1.7c-1,0-1.4,0.8-1.4,1.7
		c0,0.9,0.4,1.7,1.4,1.7C100.6,75.2,101.1,74.5,101.1,73.5z"/>
	<path class="st1" d="M107,73.5h-3.5c0,1.1,0.5,1.7,1.4,1.7c0.6,0,1-0.3,1.2-0.7h0.8c-0.1,0.8-0.8,1.4-1.9,1.4c-1.4,0-2.2-1-2.2-2.4
		c0-1.4,0.8-2.3,2.2-2.3c1.4,0,2,1,2,2.1V73.5z M103.6,72.9h2.6c0-0.6-0.5-1.1-1.3-1.1C104.1,71.8,103.6,72.3,103.6,72.9z"/>
	<path class="st1" d="M110.7,72h-0.4c-0.9,0-1.4,0.5-1.4,1.5v2.3h-0.8v-4.5h0.7v0.5h0.2c0.2-0.3,0.7-0.5,1.3-0.5h0.3V72z"/>
	<path class="st1" d="M113.4,73l0.5,0.1c0.8,0.1,1.3,0.5,1.3,1.4c0,0.7-0.6,1.4-1.9,1.4c-1.3,0-1.9-0.6-2-1.4h0.8
		c0.1,0.5,0.5,0.8,1.2,0.8s1.1-0.2,1.1-0.7c0-0.4-0.3-0.6-0.8-0.7l-1-0.2c-0.6-0.1-1.1-0.5-1.1-1.1c0-0.8,0.6-1.3,1.8-1.3
		c1.1,0,1.7,0.5,1.8,1.3h-0.8c-0.1-0.4-0.5-0.6-1.1-0.6c-0.6,0-1,0.2-1,0.6c0,0.4,0.2,0.5,0.7,0.6L113.4,73z"/>
	<path class="st1" d="M123.1,73.5c0,1.3-0.8,2.4-2.2,2.4c-1.4,0-2.2-1-2.2-2.4s0.8-2.4,2.2-2.4C122.2,71.1,123.1,72.2,123.1,73.5z
		 M122.3,73.5c0-0.9-0.5-1.7-1.5-1.7c-1,0-1.5,0.8-1.5,1.7c0,0.9,0.5,1.7,1.5,1.7C121.8,75.2,122.3,74.4,122.3,73.5z"/>
	<path class="st1" d="M123.7,71.2h0.8l1.3,3.8h0.4l1.2-3.8h0.8l-1.5,4.5h-1.4L123.7,71.2z"/>
	<path class="st1" d="M132.9,73.5h-3.5c0,1.1,0.5,1.7,1.4,1.7c0.6,0,1-0.3,1.2-0.7h0.8c-0.1,0.8-0.8,1.4-1.9,1.4
		c-1.4,0-2.2-1-2.2-2.4c0-1.4,0.8-2.3,2.2-2.3c1.4,0,2,1,2,2.1V73.5z M129.5,72.9h2.6c0-0.6-0.5-1.1-1.3-1.1
		C130,71.8,129.6,72.3,129.5,72.9z"/>
	<path class="st1" d="M136.7,72h-0.4c-0.9,0-1.4,0.5-1.4,1.5v2.3h-0.8v-4.5h0.7v0.5h0.2c0.2-0.3,0.7-0.5,1.3-0.5h0.3V72z"/>
	<path class="st1" d="M139.8,71.5c0-1.2,0.8-2.2,2.1-2.2s2.3,0.8,2.3,3.1c0,1.9-0.7,3.4-2.4,3.4c-1.1,0-1.7-0.6-1.9-1.5h0.8
		c0.2,0.5,0.5,0.8,1.1,0.8c1,0,1.6-0.9,1.6-2.2h-0.2c-0.2,0.3-0.7,0.6-1.5,0.6C140.7,73.6,139.8,72.7,139.8,71.5z M140.6,71.5
		c0,0.9,0.6,1.4,1.4,1.4c0.8,0,1.4-0.5,1.4-1.4c0-0.9-0.6-1.4-1.4-1.4C141.2,70.1,140.6,70.5,140.6,71.5z"/>
	<path class="st1" d="M12.5,88.8H9.7l-0.7,2H8.2l2.2-6.4h1.4l2.2,6.4h-0.8L12.5,88.8z M9.9,88.1h2.3l-1-2.9h-0.4L9.9,88.1z"/>
	<path class="st1" d="M19,84.2v6.5h-0.7v-0.5H18c-0.3,0.3-0.7,0.6-1.4,0.6c-1.3,0-2-1-2-2.4c0-1.4,0.7-2.4,2-2.4
		c0.7,0,1.1,0.3,1.4,0.6h0.2v-2.5H19z M18.2,88.5c0-0.9-0.4-1.7-1.4-1.7c-0.9,0-1.4,0.7-1.4,1.7s0.5,1.7,1.4,1.7
		C17.8,90.2,18.2,89.4,18.2,88.5z"/>
	<path class="st1" d="M24.5,84.2v6.5h-0.7v-0.5h-0.2c-0.3,0.3-0.7,0.6-1.4,0.6c-1.3,0-2-1-2-2.4c0-1.4,0.7-2.4,2-2.4
		c0.7,0,1.1,0.3,1.4,0.6h0.2v-2.5H24.5z M23.8,88.5c0-0.9-0.4-1.7-1.4-1.7c-0.9,0-1.4,0.7-1.4,1.7s0.5,1.7,1.4,1.7
		C23.3,90.2,23.8,89.4,23.8,88.5z"/>
	<path class="st1" d="M31.4,90.3h-0.2c-0.3,0.4-0.8,0.6-1.4,0.6c-1,0-1.6-0.7-1.6-1.5c0-0.7,0.5-1.5,1.7-1.5h1.5v-0.2
		c0-0.5-0.3-0.9-1.1-0.9c-0.7,0-1,0.3-1.1,0.7h-0.8c0.1-0.8,0.8-1.3,1.8-1.3c1.1,0,1.9,0.5,1.9,1.6v3.1h-0.7V90.3z M31.4,88.9v-0.4
		H30c-0.7,0-1.1,0.3-1.1,0.9c0,0.5,0.4,0.8,1.1,0.8C30.7,90.2,31.4,89.7,31.4,88.9z"/>
	<path class="st1" d="M34.3,84.2v6.5h-0.8v-6.5H34.3z"/>
	<path class="st1" d="M36.5,84.2v6.5h-0.8v-6.5H36.5z"/>
	<path class="st1" d="M43.8,90.8v-2.7c0-0.8-0.4-1.3-1.2-1.3c-0.8,0-1.4,0.7-1.4,1.5v2.5h-0.8v-4.5h0.7v0.5h0.2
		c0.3-0.4,0.8-0.6,1.4-0.6c1.1,0,1.7,0.7,1.7,1.8v2.9H43.8z"/>
	<path class="st1" d="M46.6,86.2V89c0,0.8,0.4,1.3,1.2,1.3c0.8,0,1.4-0.7,1.4-1.5v-2.5h0.8v4.5h-0.7v-0.5h-0.2
		c-0.3,0.4-0.8,0.6-1.4,0.6c-1.1,0-1.7-0.7-1.7-1.8v-2.9H46.6z"/>
	<path class="st1" d="M57.6,87.8v2.9h-0.8v-2.9c0-0.7-0.3-1.1-0.9-1.1c-0.7,0-1.1,0.5-1.1,1.3v2.7h-0.8v-2.8c0-0.7-0.3-1.1-0.9-1.1
		c-0.8,0-1.1,0.6-1.1,1.5v2.5h-0.8v-4.5h0.7v0.4h0.2c0.2-0.4,0.6-0.6,1.2-0.6c0.5,0,1,0.2,1.2,0.6h0.2c0.3-0.4,0.7-0.6,1.3-0.6
		C57.2,86.1,57.6,86.8,57.6,87.8z"/>
	<path class="st1" d="M63.4,88.5c0,1.3-0.7,2.4-2,2.4c-0.7,0-1.2-0.3-1.4-0.6h-0.2v0.5H59v-6.5h0.8v2.5H60c0.2-0.3,0.7-0.6,1.4-0.6
		C62.6,86.1,63.4,87.1,63.4,88.5z M62.6,88.5c0-1-0.5-1.7-1.4-1.7c-1,0-1.4,0.8-1.4,1.7c0,0.9,0.4,1.7,1.4,1.7
		C62.1,90.2,62.6,89.5,62.6,88.5z"/>
	<path class="st1" d="M68.5,88.5H65c0,1.1,0.5,1.7,1.4,1.7c0.6,0,1-0.3,1.2-0.7h0.8c-0.1,0.8-0.8,1.4-1.9,1.4c-1.4,0-2.2-1-2.2-2.4
		c0-1.4,0.8-2.3,2.2-2.3c1.4,0,2,1,2,2.1V88.5z M65.1,87.9h2.6c0-0.6-0.5-1.1-1.3-1.1C65.6,86.8,65.2,87.3,65.1,87.9z"/>
	<path class="st1" d="M72.3,87h-0.4c-0.9,0-1.4,0.5-1.4,1.5v2.3h-0.8v-4.5h0.7v0.5h0.2c0.2-0.3,0.7-0.5,1.3-0.5h0.3V87z"/>
	<path class="st1" d="M75,88l0.5,0.1c0.8,0.1,1.3,0.5,1.3,1.4c0,0.7-0.6,1.4-1.9,1.4c-1.3,0-1.9-0.6-2-1.4h0.8
		c0.1,0.5,0.5,0.8,1.2,0.8S76,90,76,89.5c0-0.4-0.3-0.6-0.8-0.7l-1-0.2c-0.6-0.1-1.1-0.5-1.1-1.1c0-0.8,0.6-1.3,1.8-1.3
		c1.1,0,1.7,0.5,1.8,1.3h-0.8c-0.1-0.4-0.5-0.6-1.1-0.6c-0.6,0-1,0.2-1,0.6c0,0.4,0.2,0.5,0.7,0.6L75,88z"/>
	<path class="st1" d="M77.8,87.3v-1h0.9v1H77.8z M77.8,90.8v-1h0.9v1H77.8z"/>
</g>
<g>
	<path class="st1" d="M456.7,10.1h-2.1v5.7h-0.8v-5.7h-2.1V9.4h5V10.1z"/>
	<path class="st1" d="M460.9,13.5c0,1.3-0.8,2.4-2.2,2.4c-1.4,0-2.2-1-2.2-2.4s0.8-2.4,2.2-2.4C460.1,11.1,460.9,12.2,460.9,13.5z
		 M460.1,13.5c0-0.9-0.5-1.7-1.5-1.7c-1,0-1.5,0.8-1.5,1.7c0,0.9,0.5,1.7,1.5,1.7C459.7,15.2,460.1,14.4,460.1,13.5z"/>
	<path class="st1" d="M464.3,11.2v0.7h-1.1v2.5c0,0.5,0.2,0.7,0.8,0.7h0.3v0.7h-0.4c-1,0-1.6-0.3-1.6-1.3v-2.6h-0.8v-0.7h0.8V9.9
		h0.8v1.4H464.3z"/>
	<path class="st1" d="M468.4,15.3h-0.2c-0.3,0.4-0.8,0.6-1.4,0.6c-1,0-1.6-0.7-1.6-1.5c0-0.7,0.5-1.5,1.7-1.5h1.5v-0.2
		c0-0.5-0.3-0.9-1.1-0.9c-0.7,0-1,0.3-1.1,0.7h-0.8c0.1-0.8,0.8-1.3,1.8-1.3c1.1,0,1.9,0.5,1.9,1.6v3.1h-0.7V15.3z M468.4,13.9v-0.4
		h-1.4c-0.7,0-1.1,0.3-1.1,0.9c0,0.5,0.4,0.8,1.1,0.8C467.8,15.2,468.4,14.7,468.4,13.9z"/>
	<path class="st1" d="M471.3,9.2v6.5h-0.8V9.2H471.3z"/>
</g>
<g>
	<path class="st1" d="M434.5,15.1h1.5v-4.8h-0.2l-1.3,0.9v-0.8l1.3-0.9h1v5.6h1.4v0.7h-3.7V15.1z"/>
	<path class="st1" d="M443.5,13.7c0,1.2-0.8,2.2-2.1,2.2c-1.3,0-2.3-0.8-2.3-3.1c0-1.9,0.7-3.4,2.4-3.4c1.1,0,1.7,0.6,1.9,1.5h-0.8
		c-0.2-0.5-0.5-0.8-1.1-0.8c-1,0-1.6,0.9-1.6,2.2h0.2c0.2-0.3,0.7-0.6,1.5-0.6C442.6,11.7,443.5,12.5,443.5,13.7z M442.7,13.8
		c0-0.9-0.6-1.4-1.4-1.4c-0.8,0-1.4,0.5-1.4,1.4c0,0.9,0.6,1.4,1.4,1.4S442.7,14.7,442.7,13.8z"/>
</g>
<g>
	<path class="st1" d="M440.9,24.2v0.9l-1.6,1.4v0.2c1.1,0,1.9,0.7,1.9,1.9c0,1.3-0.9,2.1-2.2,2.1c-1.3,0-2.1-0.8-2.2-1.9h0.8
		c0.1,0.7,0.7,1.2,1.4,1.2c0.9,0,1.4-0.5,1.4-1.4c0-0.8-0.5-1.3-1.4-1.3c-0.2,0-0.4,0-0.5,0.1v-0.8l1.5-1.3v-0.2h-2.8v-0.7H440.9z"
		/>
</g>
<g>
	<path class="st1" d="M440.4,83.7v0.9l-1.6,1.4v0.2c1.1,0,1.9,0.7,1.9,1.9c0,1.3-0.9,2.1-2.2,2.1c-1.3,0-2.1-0.8-2.2-1.9h0.8
		c0.1,0.7,0.7,1.2,1.4,1.2c0.9,0,1.4-0.5,1.4-1.4c0-0.8-0.5-1.3-1.4-1.3c-0.2,0-0.4,0-0.5,0.1v-0.8l1.5-1.3v-0.2h-2.8v-0.7H440.4z"
		/>
</g>
<g>
	<path class="st1" d="M456.5,88.7c0,1.2-0.8,2.2-2.1,2.2s-2.3-0.8-2.3-3.1c0-1.9,0.7-3.4,2.4-3.4c1.1,0,1.7,0.6,1.9,1.5h-0.8
		c-0.2-0.5-0.5-0.8-1.1-0.8c-1,0-1.6,0.9-1.6,2.2h0.2c0.2-0.3,0.7-0.6,1.5-0.6C455.6,86.7,456.5,87.5,456.5,88.7z M455.7,88.8
		c0-0.9-0.6-1.4-1.4-1.4c-0.8,0-1.4,0.5-1.4,1.4c0,0.9,0.6,1.4,1.4,1.4S455.7,89.7,455.7,88.8z"/>
	<path class="st1" d="M462,87.6c0,2.3-1,3.3-2.3,3.3c-1.3,0-2.3-1-2.3-3.3s1-3.3,2.3-3.3C461,84.4,462,85.4,462,87.6z M461.2,87.6
		c0-1.6-0.5-2.6-1.5-2.6c-1,0-1.5,1-1.5,2.6c0,1.6,0.5,2.6,1.5,2.6C460.7,90.2,461.2,89.2,461.2,87.6z"/>
</g>
<line class="st2" x1="0" y1="20.8" x2="483" y2="20.8"/>
<line class="st2" x1="149.5" y1="0.5" x2="149.5" y2="102"/>
<g>
	<path class="st1" d="M154.5,15h1.5v-4.8h-0.2l-1.3,0.9v-0.8l1.3-0.9h1V15h1.4v0.7h-3.7V15z"/>
	<path class="st1" d="M159.1,28.7v0.7h-0.9v1.5h-0.8v-1.5h-3.1v-0.9l2.8-3.9h1.1v4.1H159.1z M157.5,28.7v-3.2h-0.2l-2.1,3v0.2H157.5
		z"/>
	<path class="st1" d="M159.1,44v0.7h-0.9v1.5h-0.8v-1.5h-3.1v-0.9l2.8-3.9h1.1V44H159.1z M157.5,44v-3.2h-0.2l-2.1,3V44H157.5z"/>
	<path class="st1" d="M158,58.2c0.4,0.1,1,0.7,1,1.5c0,1-0.9,1.8-2.3,1.8c-1.4,0-2.3-0.8-2.3-1.8c0-0.8,0.6-1.4,1-1.5V58
		c-0.3-0.1-0.8-0.6-0.8-1.3c0-1,0.9-1.7,2.1-1.7c1.2,0,2.1,0.7,2.1,1.7c0,0.7-0.5,1.2-0.8,1.3V58.2z M158.2,59.6
		c0-0.7-0.6-1.2-1.5-1.2s-1.5,0.4-1.5,1.2c0,0.7,0.6,1.2,1.5,1.2S158.2,60.3,158.2,59.6z M155.4,56.7c0,0.7,0.6,1,1.3,1
		s1.3-0.4,1.3-1s-0.6-1-1.3-1S155.4,56,155.4,56.7z"/>
	<path class="st1" d="M158,73.4c0.4,0.1,1,0.7,1,1.5c0,1-0.9,1.8-2.3,1.8c-1.4,0-2.3-0.8-2.3-1.8c0-0.8,0.6-1.4,1-1.5v-0.2
		c-0.3-0.1-0.8-0.6-0.8-1.3c0-1,0.9-1.7,2.1-1.7c1.2,0,2.1,0.7,2.1,1.7c0,0.7-0.5,1.2-0.8,1.3V73.4z M158.2,74.8
		c0-0.7-0.6-1.2-1.5-1.2s-1.5,0.4-1.5,1.2c0,0.7,0.6,1.2,1.5,1.2S158.2,75.6,158.2,74.8z M155.4,71.9c0,0.7,0.6,1,1.3,1
		s1.3-0.4,1.3-1s-0.6-1-1.3-1S155.4,71.2,155.4,71.9z"/>
	<path class="st1" d="M158,88.6c0.4,0.1,1,0.7,1,1.5c0,1-0.9,1.8-2.3,1.8c-1.4,0-2.3-0.8-2.3-1.8c0-0.8,0.6-1.4,1-1.5v-0.2
		c-0.3-0.1-0.8-0.6-0.8-1.3c0-1,0.9-1.7,2.1-1.7c1.2,0,2.1,0.7,2.1,1.7c0,0.7-0.5,1.2-0.8,1.3V88.6z M158.2,90.1
		c0-0.7-0.6-1.2-1.5-1.2s-1.5,0.4-1.5,1.2c0,0.7,0.6,1.2,1.5,1.2S158.2,90.8,158.2,90.1z M155.4,87.1c0,0.7,0.6,1,1.3,1
		s1.3-0.4,1.3-1s-0.6-1-1.3-1S155.4,86.5,155.4,87.1z"/>
</g>
<g>
	<path class="st1" d="M173.4,11.2c0.1-1.3,1-1.9,2.1-1.9c1.2,0,2,0.7,2,1.9c0,0.9-0.6,1.7-1.4,2.3l-1.6,1.3v0.2h3.2v0.7h-4.3v-0.9
		l0.9-0.8c0.5-0.4,1.1-0.9,1.4-1.2c0.4-0.4,1-0.9,1-1.6c0-0.8-0.5-1.2-1.3-1.2c-0.7,0-1.2,0.4-1.3,1.2H173.4z"/>
	<path class="st1" d="M177.9,27.9c0,2.3-1,3.3-2.3,3.3c-1.3,0-2.3-1-2.3-3.3s1-3.3,2.3-3.3C176.9,24.6,177.9,25.6,177.9,27.9z
		 M177.1,27.9c0-1.6-0.5-2.6-1.5-2.6c-1,0-1.5,1-1.5,2.6c0,1.6,0.5,2.6,1.5,2.6C176.6,30.4,177.1,29.4,177.1,27.9z"/>
	<path class="st1" d="M177.9,43.1c0,2.3-1,3.3-2.3,3.3c-1.3,0-2.3-1-2.3-3.3s1-3.3,2.3-3.3C176.9,39.8,177.9,40.8,177.9,43.1z
		 M177.1,43.1c0-1.6-0.5-2.6-1.5-2.6c-1,0-1.5,1-1.5,2.6c0,1.6,0.5,2.6,1.5,2.6C176.6,45.7,177.1,44.7,177.1,43.1z"/>
	<path class="st1" d="M177.9,58.3c0,2.3-1,3.3-2.3,3.3c-1.3,0-2.3-1-2.3-3.3s1-3.3,2.3-3.3C176.9,55.1,177.9,56.1,177.9,58.3z
		 M177.1,58.3c0-1.6-0.5-2.6-1.5-2.6c-1,0-1.5,1-1.5,2.6c0,1.6,0.5,2.6,1.5,2.6C176.6,60.9,177.1,59.9,177.1,58.3z"/>
	<path class="st1" d="M177.9,73.6c0,2.3-1,3.3-2.3,3.3c-1.3,0-2.3-1-2.3-3.3s1-3.3,2.3-3.3C176.9,70.3,177.9,71.3,177.9,73.6z
		 M177.1,73.6c0-1.6-0.5-2.6-1.5-2.6c-1,0-1.5,1-1.5,2.6c0,1.6,0.5,2.6,1.5,2.6C176.6,76.2,177.1,75.1,177.1,73.6z"/>
	<path class="st1" d="M177.9,88.8c0,2.3-1,3.3-2.3,3.3c-1.3,0-2.3-1-2.3-3.3s1-3.3,2.3-3.3C176.9,85.6,177.9,86.6,177.9,88.8z
		 M177.1,88.8c0-1.6-0.5-2.6-1.5-2.6c-1,0-1.5,1-1.5,2.6c0,1.6,0.5,2.6,1.5,2.6C176.6,91.4,177.1,90.4,177.1,88.8z"/>
</g>
<g>
	<path class="st1" d="M196.3,9.4v0.9l-1.6,1.4v0.2c1.1,0,1.9,0.7,1.9,1.9c0,1.3-0.9,2.1-2.2,2.1c-1.3,0-2.1-0.8-2.2-1.9h0.8
		c0.1,0.7,0.7,1.2,1.4,1.2c0.9,0,1.4-0.5,1.4-1.4c0-0.8-0.5-1.3-1.4-1.3c-0.2,0-0.4,0-0.5,0.1v-0.8l1.5-1.3V10h-2.8V9.4H196.3z"/>
	<path class="st1" d="M196.7,27.7c0,2.3-1,3.3-2.3,3.3c-1.3,0-2.3-1-2.3-3.3s1-3.3,2.3-3.3C195.7,24.5,196.7,25.5,196.7,27.7z
		 M195.9,27.7c0-1.6-0.5-2.6-1.5-2.6c-1,0-1.5,1-1.5,2.6c0,1.6,0.5,2.6,1.5,2.6C195.4,30.3,195.9,29.3,195.9,27.7z"/>
	<path class="st1" d="M196.7,43c0,2.3-1,3.3-2.3,3.3c-1.3,0-2.3-1-2.3-3.3s1-3.3,2.3-3.3C195.7,39.7,196.7,40.7,196.7,43z M195.9,43
		c0-1.6-0.5-2.6-1.5-2.6c-1,0-1.5,1-1.5,2.6c0,1.6,0.5,2.6,1.5,2.6C195.4,45.5,195.9,44.5,195.9,43z"/>
	<path class="st1" d="M196.7,58.2c0,2.3-1,3.3-2.3,3.3c-1.3,0-2.3-1-2.3-3.3s1-3.3,2.3-3.3C195.7,54.9,196.7,56,196.7,58.2z
		 M195.9,58.2c0-1.6-0.5-2.6-1.5-2.6c-1,0-1.5,1-1.5,2.6c0,1.6,0.5,2.6,1.5,2.6C195.4,60.8,195.9,59.8,195.9,58.2z"/>
	<path class="st1" d="M196.7,73.5c0,2.3-1,3.3-2.3,3.3c-1.3,0-2.3-1-2.3-3.3s1-3.3,2.3-3.3C195.7,70.2,196.7,71.2,196.7,73.5z
		 M195.9,73.5c0-1.6-0.5-2.6-1.5-2.6c-1,0-1.5,1-1.5,2.6c0,1.6,0.5,2.6,1.5,2.6C195.4,76,195.9,75,195.9,73.5z"/>
	<path class="st1" d="M196.7,88.7c0,2.3-1,3.3-2.3,3.3c-1.3,0-2.3-1-2.3-3.3s1-3.3,2.3-3.3C195.7,85.4,196.7,86.4,196.7,88.7z
		 M195.9,88.7c0-1.6-0.5-2.6-1.5-2.6c-1,0-1.5,1-1.5,2.6c0,1.6,0.5,2.6,1.5,2.6C195.4,91.3,195.9,90.3,195.9,88.7z"/>
</g>
<g>
	<path class="st1" d="M215.6,13.5v0.7h-0.9v1.5h-0.8v-1.5h-3.1v-0.9l2.8-3.9h1.1v4.1H215.6z M213.9,13.5v-3.2h-0.2l-2.1,3v0.2H213.9
		z"/>
	<path class="st1" d="M215.5,27.7c0,2.3-1,3.3-2.3,3.3c-1.3,0-2.3-1-2.3-3.3s1-3.3,2.3-3.3C214.5,24.5,215.5,25.5,215.5,27.7z
		 M214.7,27.7c0-1.6-0.5-2.6-1.5-2.6c-1,0-1.5,1-1.5,2.6c0,1.6,0.5,2.6,1.5,2.6C214.3,30.3,214.7,29.3,214.7,27.7z"/>
	<path class="st1" d="M215.5,43c0,2.3-1,3.3-2.3,3.3c-1.3,0-2.3-1-2.3-3.3s1-3.3,2.3-3.3C214.5,39.7,215.5,40.7,215.5,43z M214.7,43
		c0-1.6-0.5-2.6-1.5-2.6c-1,0-1.5,1-1.5,2.6c0,1.6,0.5,2.6,1.5,2.6C214.3,45.5,214.7,44.5,214.7,43z"/>
	<path class="st1" d="M215.5,58.2c0,2.3-1,3.3-2.3,3.3c-1.3,0-2.3-1-2.3-3.3s1-3.3,2.3-3.3C214.5,54.9,215.5,56,215.5,58.2z
		 M214.7,58.2c0-1.6-0.5-2.6-1.5-2.6c-1,0-1.5,1-1.5,2.6c0,1.6,0.5,2.6,1.5,2.6C214.3,60.8,214.7,59.8,214.7,58.2z"/>
	<path class="st1" d="M215.5,73.5c0,2.3-1,3.3-2.3,3.3c-1.3,0-2.3-1-2.3-3.3s1-3.3,2.3-3.3C214.5,70.2,215.5,71.2,215.5,73.5z
		 M214.7,73.5c0-1.6-0.5-2.6-1.5-2.6c-1,0-1.5,1-1.5,2.6c0,1.6,0.5,2.6,1.5,2.6C214.3,76,214.7,75,214.7,73.5z"/>
	<path class="st1" d="M215.5,88.7c0,2.3-1,3.3-2.3,3.3c-1.3,0-2.3-1-2.3-3.3s1-3.3,2.3-3.3C214.5,85.4,215.5,86.4,215.5,88.7z
		 M214.7,88.7c0-1.6-0.5-2.6-1.5-2.6c-1,0-1.5,1-1.5,2.6c0,1.6,0.5,2.6,1.5,2.6C214.3,91.3,214.7,90.3,214.7,88.7z"/>
</g>
<g>
	<path class="st1" d="M234.2,13.5c0,1.4-0.9,2.3-2.2,2.3c-1.4,0-2.1-0.8-2.2-1.9h0.8c0.1,0.8,0.6,1.2,1.4,1.2c0.8,0,1.4-0.6,1.4-1.5
		c0-0.9-0.5-1.5-1.4-1.5c-0.6,0-1,0.2-1.3,0.6H230l0.3-3.3h3.6V10h-3l-0.1,1.8h0.2c0.3-0.3,0.6-0.4,1.2-0.4
		C233.4,11.4,234.2,12.3,234.2,13.5z"/>
	<path class="st1" d="M234.3,27.7c0,2.3-1,3.3-2.3,3.3c-1.3,0-2.3-1-2.3-3.3s1-3.3,2.3-3.3C233.4,24.5,234.3,25.5,234.3,27.7z
		 M233.6,27.7c0-1.6-0.5-2.6-1.5-2.6c-1,0-1.5,1-1.5,2.6c0,1.6,0.5,2.6,1.5,2.6C233.1,30.3,233.6,29.3,233.6,27.7z"/>
	<path class="st1" d="M234.3,43c0,2.3-1,3.3-2.3,3.3c-1.3,0-2.3-1-2.3-3.3s1-3.3,2.3-3.3C233.4,39.7,234.3,40.7,234.3,43z M233.6,43
		c0-1.6-0.5-2.6-1.5-2.6c-1,0-1.5,1-1.5,2.6c0,1.6,0.5,2.6,1.5,2.6C233.1,45.5,233.6,44.5,233.6,43z"/>
	<path class="st1" d="M234.3,58.2c0,2.3-1,3.3-2.3,3.3c-1.3,0-2.3-1-2.3-3.3s1-3.3,2.3-3.3C233.4,54.9,234.3,56,234.3,58.2z
		 M233.6,58.2c0-1.6-0.5-2.6-1.5-2.6c-1,0-1.5,1-1.5,2.6c0,1.6,0.5,2.6,1.5,2.6C233.1,60.8,233.6,59.8,233.6,58.2z"/>
	<path class="st1" d="M234.3,73.5c0,2.3-1,3.3-2.3,3.3c-1.3,0-2.3-1-2.3-3.3s1-3.3,2.3-3.3C233.4,70.2,234.3,71.2,234.3,73.5z
		 M233.6,73.5c0-1.6-0.5-2.6-1.5-2.6c-1,0-1.5,1-1.5,2.6c0,1.6,0.5,2.6,1.5,2.6C233.1,76,233.6,75,233.6,73.5z"/>
	<path class="st1" d="M234.3,88.7c0,2.3-1,3.3-2.3,3.3c-1.3,0-2.3-1-2.3-3.3s1-3.3,2.3-3.3C233.4,85.4,234.3,86.4,234.3,88.7z
		 M233.6,88.7c0-1.6-0.5-2.6-1.5-2.6c-1,0-1.5,1-1.5,2.6c0,1.6,0.5,2.6,1.5,2.6C233.1,91.3,233.6,90.3,233.6,88.7z"/>
</g>
<g>
	<path class="st1" d="M253.1,13.7c0,1.2-0.8,2.2-2.1,2.2c-1.3,0-2.3-0.8-2.3-3.1c0-1.9,0.7-3.4,2.4-3.4c1.1,0,1.7,0.6,1.9,1.5h-0.8
		c-0.2-0.5-0.5-0.8-1.1-0.8c-1,0-1.6,0.9-1.6,2.2h0.2c0.2-0.3,0.7-0.6,1.5-0.6C252.2,11.7,253.1,12.5,253.1,13.7z M252.3,13.8
		c0-0.9-0.6-1.4-1.4-1.4c-0.8,0-1.4,0.5-1.4,1.4c0,0.9,0.6,1.4,1.4,1.4S252.3,14.7,252.3,13.8z"/>
	<path class="st1" d="M253.2,27.9c0,2.3-1,3.3-2.3,3.3c-1.3,0-2.3-1-2.3-3.3s1-3.3,2.3-3.3C252.2,24.6,253.2,25.6,253.2,27.9z
		 M252.4,27.9c0-1.6-0.5-2.6-1.5-2.6c-1,0-1.5,1-1.5,2.6c0,1.6,0.5,2.6,1.5,2.6C251.9,30.4,252.4,29.4,252.4,27.9z"/>
	<path class="st1" d="M253.2,43.1c0,2.3-1,3.3-2.3,3.3c-1.3,0-2.3-1-2.3-3.3s1-3.3,2.3-3.3C252.2,39.8,253.2,40.8,253.2,43.1z
		 M252.4,43.1c0-1.6-0.5-2.6-1.5-2.6c-1,0-1.5,1-1.5,2.6c0,1.6,0.5,2.6,1.5,2.6C251.9,45.7,252.4,44.7,252.4,43.1z"/>
	<path class="st1" d="M253.2,58.3c0,2.3-1,3.3-2.3,3.3s-2.3-1-2.3-3.3s1-3.3,2.3-3.3S253.2,56.1,253.2,58.3z M252.4,58.3
		c0-1.6-0.5-2.6-1.5-2.6c-1,0-1.5,1-1.5,2.6c0,1.6,0.5,2.6,1.5,2.6C251.9,60.9,252.4,59.9,252.4,58.3z"/>
	<path class="st1" d="M253.2,73.6c0,2.3-1,3.3-2.3,3.3s-2.3-1-2.3-3.3s1-3.3,2.3-3.3S253.2,71.3,253.2,73.6z M252.4,73.6
		c0-1.6-0.5-2.6-1.5-2.6c-1,0-1.5,1-1.5,2.6c0,1.6,0.5,2.6,1.5,2.6C251.9,76.2,252.4,75.1,252.4,73.6z"/>
	<path class="st1" d="M253.2,88.8c0,2.3-1,3.3-2.3,3.3s-2.3-1-2.3-3.3s1-3.3,2.3-3.3S253.2,86.6,253.2,88.8z M252.4,88.8
		c0-1.6-0.5-2.6-1.5-2.6c-1,0-1.5,1-1.5,2.6c0,1.6,0.5,2.6,1.5,2.6C251.9,91.4,252.4,90.4,252.4,88.8z"/>
</g>
<g>
	<path class="st1" d="M269,15.7h-0.8l2.7-5.4V10h-3.2V9.4h4v0.9L269,15.7z"/>
	<path class="st1" d="M271,27.7c0.4,0.1,1,0.7,1,1.5c0,1-0.9,1.8-2.3,1.8s-2.3-0.8-2.3-1.8c0-0.8,0.6-1.4,1-1.5v-0.2
		c-0.3-0.1-0.8-0.6-0.8-1.3c0-1,0.9-1.7,2.1-1.7s2.1,0.7,2.1,1.7c0,0.7-0.5,1.2-0.8,1.3V27.7z M271.2,29.1c0-0.7-0.6-1.2-1.5-1.2
		s-1.5,0.4-1.5,1.2c0,0.7,0.6,1.2,1.5,1.2S271.2,29.8,271.2,29.1z M268.4,26.2c0,0.7,0.6,1,1.3,1s1.3-0.4,1.3-1s-0.6-1-1.3-1
		S268.4,25.5,268.4,26.2z"/>
	<path class="st1" d="M271,42.9c0.4,0.1,1,0.7,1,1.5c0,1-0.9,1.8-2.3,1.8s-2.3-0.8-2.3-1.8c0-0.8,0.6-1.4,1-1.5v-0.2
		c-0.3-0.1-0.8-0.6-0.8-1.3c0-1,0.9-1.7,2.1-1.7s2.1,0.7,2.1,1.7c0,0.7-0.5,1.2-0.8,1.3V42.9z M271.2,44.3c0-0.7-0.6-1.2-1.5-1.2
		s-1.5,0.4-1.5,1.2c0,0.7,0.6,1.2,1.5,1.2S271.2,45.1,271.2,44.3z M268.4,41.4c0,0.7,0.6,1,1.3,1s1.3-0.4,1.3-1s-0.6-1-1.3-1
		S268.4,40.8,268.4,41.4z"/>
	<path class="st1" d="M269,76.6h-0.8l2.7-5.4V71h-3.2v-0.7h4v0.9L269,76.6z"/>
	<path class="st1" d="M269,91.9h-0.8l2.7-5.4v-0.2h-3.2v-0.7h4v0.9L269,91.9z"/>
	<g>
		<path class="st1" d="M265,60.7h1.5v-4.8h-0.2l-1.3,0.9V56l1.3-0.9h1v5.6h1.4v0.7H265V60.7z"/>
		<path class="st1" d="M274.3,59.3c0,1.2-0.8,2.2-2.1,2.2s-2.3-0.8-2.3-3.1c0-1.9,0.7-3.4,2.4-3.4c1.1,0,1.7,0.6,1.9,1.5h-0.8
			c-0.2-0.5-0.5-0.8-1.1-0.8c-1,0-1.6,0.9-1.6,2.2h0.2c0.2-0.3,0.7-0.6,1.5-0.6C273.5,57.3,274.3,58.1,274.3,59.3z M273.6,59.4
			c0-0.9-0.6-1.4-1.4-1.4c-0.8,0-1.4,0.5-1.4,1.4c0,0.9,0.6,1.4,1.4,1.4S273.6,60.3,273.6,59.4z"/>
	</g>
</g>
<g>
	<path class="st1" d="M289.8,12.6c0.4,0.1,1,0.7,1,1.5c0,1-0.9,1.8-2.3,1.8c-1.4,0-2.3-0.8-2.3-1.8c0-0.8,0.6-1.4,1-1.5v-0.2
		c-0.3-0.1-0.8-0.6-0.8-1.3c0-1,0.9-1.7,2.1-1.7c1.2,0,2.1,0.7,2.1,1.7c0,0.7-0.5,1.2-0.8,1.3V12.6z M290,14c0-0.7-0.6-1.2-1.5-1.2
		c-0.9,0-1.5,0.4-1.5,1.2c0,0.7,0.6,1.2,1.5,1.2C289.4,15.2,290,14.7,290,14z M287.2,11.1c0,0.7,0.6,1,1.3,1c0.7,0,1.3-0.4,1.3-1
		s-0.6-1-1.3-1C287.8,10,287.2,10.4,287.2,11.1z"/>
	<path class="st1" d="M290.9,28.8v0.7H290V31h-0.8v-1.5h-3.1v-0.9l2.8-3.9h1.1v4.1H290.9z M289.3,28.8v-3.2h-0.2l-2.1,3v0.2H289.3z"
		/>
	<path class="st1" d="M290.9,44.1v0.7H290v1.5h-0.8v-1.5h-3.1v-0.9l2.8-3.9h1.1v4.1H290.9z M289.3,44.1v-3.2h-0.2l-2.1,3v0.2H289.3z
		"/>
	<path class="st1" d="M290.9,59.3V60H290v1.5h-0.8V60h-3.1v-0.9l2.8-3.9h1.1v4.1H290.9z M289.2,59.3v-3.2h-0.2l-2.1,3v0.2H289.2z"/>
	<path class="st1" d="M290.9,74.6v0.7H290v1.5h-0.8v-1.5h-3.1v-0.9l2.8-3.9h1.1v4.1H290.9z M289.3,74.6v-3.2h-0.2l-2.1,3v0.2H289.3z
		"/>
	<path class="st1" d="M290.9,89.8v0.7H290V92h-0.8v-1.5h-3.1v-0.9l2.8-3.9h1.1v4.1H290.9z M289.3,89.8v-3.2h-0.2l-2.1,3v0.2H289.3z"
		/>
</g>
<g>
	<path class="st1" d="M305.1,11.5c0-1.2,0.8-2.2,2.1-2.2c1.3,0,2.3,0.8,2.3,3.1c0,1.9-0.7,3.4-2.4,3.4c-1.1,0-1.7-0.6-1.9-1.5h0.8
		c0.2,0.5,0.5,0.8,1.1,0.8c1,0,1.6-0.9,1.6-2.2h-0.2c-0.2,0.3-0.7,0.6-1.5,0.6C306,13.6,305.1,12.7,305.1,11.5z M305.9,11.5
		c0,0.9,0.6,1.4,1.4,1.4c0.8,0,1.4-0.5,1.4-1.4c0-0.9-0.6-1.4-1.4-1.4C306.5,10.1,305.9,10.5,305.9,11.5z"/>
	<path class="st1" d="M309.7,28.8v0.7h-0.9V31h-0.8v-1.5H305v-0.9l2.8-3.9h1.1v4.1H309.7z M308.1,28.8v-3.2h-0.2l-2.1,3v0.2H308.1z"
		/>
	<path class="st1" d="M309.7,44.1v0.7h-0.9v1.5h-0.8v-1.5H305v-0.9l2.8-3.9h1.1v4.1H309.7z M308.1,44.1v-3.2h-0.2l-2.1,3v0.2H308.1z
		"/>
	<path class="st1" d="M308.6,58.3c0.4,0.1,1,0.7,1,1.5c0,1-0.9,1.8-2.3,1.8c-1.4,0-2.3-0.8-2.3-1.8c0-0.8,0.6-1.4,1-1.5v-0.2
		c-0.3-0.1-0.8-0.6-0.8-1.3c0-1,0.9-1.7,2.1-1.7c1.2,0,2.1,0.7,2.1,1.7c0,0.7-0.5,1.2-0.8,1.3V58.3z M308.8,59.7
		c0-0.7-0.6-1.2-1.5-1.2c-0.9,0-1.5,0.4-1.5,1.2c0,0.7,0.6,1.2,1.5,1.2C308.3,60.9,308.8,60.4,308.8,59.7z M306,56.8
		c0,0.7,0.6,1,1.3,1c0.7,0,1.3-0.4,1.3-1s-0.6-1-1.3-1C306.6,55.8,306,56.1,306,56.8z"/>
	<path class="st1" d="M308.6,73.5c0.4,0.1,1,0.7,1,1.5c0,1-0.9,1.8-2.3,1.8c-1.4,0-2.3-0.8-2.3-1.8c0-0.8,0.6-1.4,1-1.5v-0.2
		c-0.3-0.1-0.8-0.6-0.8-1.3c0-1,0.9-1.7,2.1-1.7c1.2,0,2.1,0.7,2.1,1.7c0,0.7-0.5,1.2-0.8,1.3V73.5z M308.8,74.9
		c0-0.7-0.6-1.2-1.5-1.2c-0.9,0-1.5,0.4-1.5,1.2c0,0.7,0.6,1.2,1.5,1.2C308.3,76.2,308.8,75.7,308.8,74.9z M306,72
		c0,0.7,0.6,1,1.3,1c0.7,0,1.3-0.4,1.3-1s-0.6-1-1.3-1C306.6,71,306,71.4,306,72z"/>
	<path class="st1" d="M308.6,88.8c0.4,0.1,1,0.7,1,1.5c0,1-0.9,1.8-2.3,1.8c-1.4,0-2.3-0.8-2.3-1.8c0-0.8,0.6-1.4,1-1.5v-0.2
		c-0.3-0.1-0.8-0.6-0.8-1.3c0-1,0.9-1.7,2.1-1.7c1.2,0,2.1,0.7,2.1,1.7c0,0.7-0.5,1.2-0.8,1.3V88.8z M308.8,90.2
		c0-0.7-0.6-1.2-1.5-1.2c-0.9,0-1.5,0.4-1.5,1.2c0,0.7,0.6,1.2,1.5,1.2C308.3,91.4,308.8,90.9,308.8,90.2z M306,87.3
		c0,0.7,0.6,1,1.3,1c0.7,0,1.3-0.4,1.3-1s-0.6-1-1.3-1C306.6,86.2,306,86.6,306,87.3z"/>
</g>
<g>
	<path class="st1" d="M323.9,26.8c0-1.2,0.8-2.2,2.1-2.2c1.3,0,2.3,0.8,2.3,3.1c0,1.9-0.7,3.4-2.4,3.4c-1.1,0-1.7-0.6-1.9-1.5h0.8
		c0.2,0.5,0.5,0.8,1.1,0.8c1,0,1.6-0.9,1.6-2.2h-0.2c-0.2,0.3-0.7,0.6-1.5,0.6C324.8,28.8,323.9,28,323.9,26.8z M324.7,26.7
		c0,0.9,0.6,1.4,1.4,1.4c0.8,0,1.4-0.5,1.4-1.4c0-0.9-0.6-1.4-1.4-1.4C325.3,25.3,324.7,25.8,324.7,26.7z"/>
	<path class="st1" d="M323.9,42c0-1.2,0.8-2.2,2.1-2.2c1.3,0,2.3,0.8,2.3,3.1c0,1.9-0.7,3.4-2.4,3.4c-1.1,0-1.7-0.6-1.9-1.5h0.8
		c0.2,0.5,0.5,0.8,1.1,0.8c1,0,1.6-0.9,1.6-2.2h-0.2c-0.2,0.3-0.7,0.6-1.5,0.6C324.8,44.1,323.9,43.2,323.9,42z M324.7,42
		c0,0.9,0.6,1.4,1.4,1.4c0.8,0,1.4-0.5,1.4-1.4c0-0.9-0.6-1.4-1.4-1.4C325.3,40.5,324.7,41,324.7,42z"/>
	<path class="st1" d="M323.9,57.2c0-1.2,0.8-2.2,2.1-2.2c1.3,0,2.3,0.8,2.3,3.1c0,1.9-0.7,3.4-2.4,3.4c-1.1,0-1.7-0.6-1.9-1.5h0.8
		c0.2,0.5,0.5,0.8,1.1,0.8c1,0,1.6-0.9,1.6-2.2h-0.2c-0.2,0.3-0.7,0.6-1.5,0.6C324.8,59.3,323.9,58.4,323.9,57.2z M324.7,57.2
		c0,0.9,0.6,1.4,1.4,1.4c0.8,0,1.4-0.5,1.4-1.4c0-0.9-0.6-1.4-1.4-1.4C325.3,55.8,324.7,56.3,324.7,57.2z"/>
	<path class="st1" d="M323.9,72.5c0-1.2,0.8-2.2,2.1-2.2c1.3,0,2.3,0.8,2.3,3.1c0,1.9-0.7,3.4-2.4,3.4c-1.1,0-1.7-0.6-1.9-1.5h0.8
		c0.2,0.5,0.5,0.8,1.1,0.8c1,0,1.6-0.9,1.6-2.2h-0.2c-0.2,0.3-0.7,0.6-1.5,0.6C324.8,74.5,323.9,73.7,323.9,72.5z M324.7,72.4
		c0,0.9,0.6,1.4,1.4,1.4c0.8,0,1.4-0.5,1.4-1.4c0-0.9-0.6-1.4-1.4-1.4C325.3,71,324.7,71.5,324.7,72.4z"/>
	<path class="st1" d="M323.9,87.7c0-1.2,0.8-2.2,2.1-2.2c1.3,0,2.3,0.8,2.3,3.1c0,1.9-0.7,3.4-2.4,3.4c-1.1,0-1.7-0.6-1.9-1.5h0.8
		c0.2,0.5,0.5,0.8,1.1,0.8c1,0,1.6-0.9,1.6-2.2h-0.2c-0.2,0.3-0.7,0.6-1.5,0.6C324.8,89.8,323.9,88.9,323.9,87.7z M324.7,87.7
		c0,0.9,0.6,1.4,1.4,1.4c0.8,0,1.4-0.5,1.4-1.4c0-0.9-0.6-1.4-1.4-1.4C325.3,86.3,324.7,86.8,324.7,87.7z"/>
	<g>
		<path class="st1" d="M321.4,15.1h1.5v-4.8h-0.2l-1.3,0.9v-0.8l1.3-0.9h1v5.6h1.4v0.7h-3.7V15.1z"/>
		<path class="st1" d="M330.9,12.6c0,2.3-1,3.3-2.3,3.3c-1.3,0-2.3-1-2.3-3.3s1-3.3,2.3-3.3C329.9,9.4,330.9,10.4,330.9,12.6z
			 M330.1,12.6c0-1.6-0.5-2.6-1.5-2.6c-1,0-1.5,1-1.5,2.6c0,1.6,0.5,2.6,1.5,2.6C329.6,15.2,330.1,14.2,330.1,12.6z"/>
	</g>
</g>
<g>
	<path class="st1" d="M347.4,28.7v0.7h-0.9v1.5h-0.8v-1.5h-3.1v-0.9l2.8-3.9h1.1v4.1H347.4z M345.7,28.7v-3.2h-0.2l-2.1,3v0.2H345.7
		z"/>
	<path class="st1" d="M347.4,44v0.7h-0.9v1.5h-0.8v-1.5h-3.1v-0.9l2.8-3.9h1.1V44H347.4z M345.7,44v-3.2h-0.2l-2.1,3V44H345.7z"/>
	<path class="st1" d="M346.3,58.2c0.4,0.1,1,0.7,1,1.5c0,1-0.9,1.8-2.3,1.8c-1.4,0-2.3-0.8-2.3-1.8c0-0.8,0.6-1.4,1-1.5V58
		c-0.3-0.1-0.8-0.6-0.8-1.3c0-1,0.9-1.7,2.1-1.7c1.2,0,2.1,0.7,2.1,1.7c0,0.7-0.5,1.2-0.8,1.3V58.2z M346.5,59.6
		c0-0.7-0.6-1.2-1.5-1.2c-0.9,0-1.5,0.4-1.5,1.2c0,0.7,0.6,1.2,1.5,1.2C345.9,60.8,346.5,60.3,346.5,59.6z M343.7,56.7
		c0,0.7,0.6,1,1.3,1c0.7,0,1.3-0.4,1.3-1s-0.6-1-1.3-1C344.3,55.6,343.7,56,343.7,56.7z"/>
	<path class="st1" d="M346.3,73.4c0.4,0.1,1,0.7,1,1.5c0,1-0.9,1.8-2.3,1.8c-1.4,0-2.3-0.8-2.3-1.8c0-0.8,0.6-1.4,1-1.5v-0.2
		c-0.3-0.1-0.8-0.6-0.8-1.3c0-1,0.9-1.7,2.1-1.7c1.2,0,2.1,0.7,2.1,1.7c0,0.7-0.5,1.2-0.8,1.3V73.4z M346.5,74.8
		c0-0.7-0.6-1.2-1.5-1.2c-0.9,0-1.5,0.4-1.5,1.2c0,0.7,0.6,1.2,1.5,1.2C345.9,76,346.5,75.6,346.5,74.8z M343.7,71.9
		c0,0.7,0.6,1,1.3,1c0.7,0,1.3-0.4,1.3-1s-0.6-1-1.3-1C344.3,70.9,343.7,71.2,343.7,71.9z"/>
	<path class="st1" d="M346.3,88.6c0.4,0.1,1,0.7,1,1.5c0,1-0.9,1.8-2.3,1.8c-1.4,0-2.3-0.8-2.3-1.8c0-0.8,0.6-1.4,1-1.5v-0.2
		c-0.3-0.1-0.8-0.6-0.8-1.3c0-1,0.9-1.7,2.1-1.7c1.2,0,2.1,0.7,2.1,1.7c0,0.7-0.5,1.2-0.8,1.3V88.6z M346.5,90.1
		c0-0.7-0.6-1.2-1.5-1.2c-0.9,0-1.5,0.4-1.5,1.2c0,0.7,0.6,1.2,1.5,1.2C345.9,91.3,346.5,90.8,346.5,90.1z M343.7,87.1
		c0,0.7,0.6,1,1.3,1c0.7,0,1.3-0.4,1.3-1s-0.6-1-1.3-1C344.3,86.1,343.7,86.5,343.7,87.1z"/>
	<g>
		<path class="st1" d="M340.7,15h1.5v-4.8H342l-1.3,0.9v-0.8l1.3-0.9h1V15h1.4v0.7h-3.7V15z"/>
		<path class="st1" d="M345.6,15h1.5v-4.8h-0.2l-1.3,0.9v-0.8l1.3-0.9h1V15h1.4v0.7h-3.7V15z"/>
	</g>
</g>
<g>
	<path class="st1" d="M365.7,24.7v0.9l-1.6,1.4v0.2c1.1,0,1.9,0.7,1.9,1.9c0,1.3-0.9,2.1-2.2,2.1c-1.3,0-2.1-0.8-2.2-1.9h0.8
		c0.1,0.7,0.7,1.2,1.4,1.2c0.9,0,1.4-0.5,1.4-1.4c0-0.8-0.5-1.3-1.4-1.3c-0.2,0-0.4,0-0.5,0.1v-0.8l1.5-1.3v-0.2H362v-0.7H365.7z"/>
	<path class="st1" d="M365.7,40v0.9l-1.6,1.4v0.2c1.1,0,1.9,0.7,1.9,1.9c0,1.3-0.9,2.1-2.2,2.1c-1.3,0-2.1-0.8-2.2-1.9h0.8
		c0.1,0.7,0.7,1.2,1.4,1.2c0.9,0,1.4-0.5,1.4-1.4c0-0.8-0.5-1.3-1.4-1.3c-0.2,0-0.4,0-0.5,0.1v-0.8l1.5-1.3v-0.2H362V40H365.7z"/>
	<path class="st1" d="M365.7,55.2v0.9l-1.6,1.4v0.2c1.1,0,1.9,0.7,1.9,1.9c0,1.3-0.9,2.1-2.2,2.1c-1.3,0-2.1-0.8-2.2-1.9h0.8
		c0.1,0.7,0.7,1.2,1.4,1.2c0.9,0,1.4-0.5,1.4-1.4c0-0.8-0.5-1.3-1.4-1.3c-0.2,0-0.4,0-0.5,0.1v-0.8l1.5-1.3v-0.2H362v-0.7H365.7z"/>
	<path class="st1" d="M365.7,70.4v0.9l-1.6,1.4v0.2c1.1,0,1.9,0.7,1.9,1.9c0,1.3-0.9,2.1-2.2,2.1c-1.3,0-2.1-0.8-2.2-1.9h0.8
		c0.1,0.7,0.7,1.2,1.4,1.2c0.9,0,1.4-0.5,1.4-1.4c0-0.8-0.5-1.3-1.4-1.3c-0.2,0-0.4,0-0.5,0.1v-0.8l1.5-1.3v-0.2H362v-0.7H365.7z"/>
	<path class="st1" d="M365.7,85.7v0.9l-1.6,1.4v0.2c1.1,0,1.9,0.7,1.9,1.9c0,1.3-0.9,2.1-2.2,2.1c-1.3,0-2.1-0.8-2.2-1.9h0.8
		c0.1,0.7,0.7,1.2,1.4,1.2c0.9,0,1.4-0.5,1.4-1.4c0-0.8-0.5-1.3-1.4-1.3c-0.2,0-0.4,0-0.5,0.1v-0.8l1.5-1.3v-0.2H362v-0.7H365.7z"/>
	<g>
		<path class="st1" d="M359.2,15.1h1.5v-4.8h-0.2l-1.3,0.9v-0.8l1.3-0.9h1v5.6h1.4v0.7h-3.7V15.1z"/>
		<path class="st1" d="M364.1,11.2c0.1-1.3,1-1.9,2.1-1.9c1.2,0,2,0.7,2,1.9c0,0.9-0.6,1.7-1.4,2.3l-1.6,1.3v0.2h3.2v0.7h-4.3v-0.9
			l0.9-0.8c0.5-0.4,1.1-0.9,1.4-1.2c0.4-0.4,1-0.9,1-1.6c0-0.8-0.5-1.2-1.3-1.2c-0.7,0-1.2,0.4-1.3,1.2H364.1z"/>
	</g>
</g>
<g>
	<path class="st1" d="M384.5,24.6v0.9l-1.6,1.4V27c1.1,0,1.9,0.7,1.9,1.9c0,1.3-0.9,2.1-2.2,2.1c-1.3,0-2.1-0.8-2.2-1.9h0.8
		c0.1,0.7,0.7,1.2,1.4,1.2c0.9,0,1.4-0.5,1.4-1.4c0-0.8-0.5-1.3-1.4-1.3c-0.2,0-0.4,0-0.5,0.1v-0.8l1.5-1.3v-0.2h-2.8v-0.7H384.5z"
		/>
	<path class="st1" d="M384.5,39.8v0.9l-1.6,1.4v0.2c1.1,0,1.9,0.7,1.9,1.9c0,1.3-0.9,2.1-2.2,2.1c-1.3,0-2.1-0.8-2.2-1.9h0.8
		c0.1,0.7,0.7,1.2,1.4,1.2c0.9,0,1.4-0.5,1.4-1.4c0-0.8-0.5-1.3-1.4-1.3c-0.2,0-0.4,0-0.5,0.1V42l1.5-1.3v-0.2h-2.8v-0.7H384.5z"/>
	<path class="st1" d="M384.9,59.3c0,1.2-0.8,2.2-2.1,2.2c-1.3,0-2.3-0.8-2.3-3.1c0-1.9,0.7-3.4,2.4-3.4c1.1,0,1.7,0.6,1.9,1.5h-0.8
		c-0.2-0.5-0.5-0.8-1.1-0.8c-1,0-1.6,0.9-1.6,2.2h0.2c0.2-0.3,0.7-0.6,1.5-0.6C384,57.3,384.9,58.1,384.9,59.3z M384.1,59.4
		c0-0.9-0.6-1.4-1.4-1.4c-0.8,0-1.4,0.5-1.4,1.4c0,0.9,0.6,1.4,1.4,1.4S384.1,60.3,384.1,59.4z"/>
	<path class="st1" d="M384.9,74.6c0,1.2-0.8,2.2-2.1,2.2c-1.3,0-2.3-0.8-2.3-3.1c0-1.9,0.7-3.4,2.4-3.4c1.1,0,1.7,0.6,1.9,1.5h-0.8
		c-0.2-0.5-0.5-0.8-1.1-0.8c-1,0-1.6,0.9-1.6,2.2h0.2c0.2-0.3,0.7-0.6,1.5-0.6C384,72.5,384.9,73.4,384.9,74.6z M384.1,74.6
		c0-0.9-0.6-1.4-1.4-1.4c-0.8,0-1.4,0.5-1.4,1.4c0,0.9,0.6,1.4,1.4,1.4S384.1,75.5,384.1,74.6z"/>
	<path class="st1" d="M384.9,89.8c0,1.2-0.8,2.2-2.1,2.2c-1.3,0-2.3-0.8-2.3-3.1c0-1.9,0.7-3.4,2.4-3.4c1.1,0,1.7,0.6,1.9,1.5h-0.8
		c-0.2-0.5-0.5-0.8-1.1-0.8c-1,0-1.6,0.9-1.6,2.2h0.2c0.2-0.3,0.7-0.6,1.5-0.6C384,87.7,384.9,88.6,384.9,89.8z M384.1,89.8
		c0-0.9-0.6-1.4-1.4-1.4c-0.8,0-1.4,0.5-1.4,1.4c0,0.9,0.6,1.4,1.4,1.4S384.1,90.8,384.1,89.8z"/>
	<g>
		<path class="st1" d="M378.1,15h1.5v-4.8h-0.2l-1.3,0.9v-0.8l1.3-0.9h1V15h1.4v0.7h-3.7V15z"/>
		<path class="st1" d="M386.9,9.4v0.9l-1.6,1.4v0.2c1.1,0,1.9,0.7,1.9,1.9c0,1.3-0.9,2.1-2.2,2.1c-1.3,0-2.1-0.8-2.2-1.9h0.8
			c0.1,0.7,0.7,1.2,1.4,1.2c0.9,0,1.4-0.5,1.4-1.4c0-0.8-0.5-1.3-1.4-1.3c-0.2,0-0.4,0-0.5,0.1v-0.8l1.5-1.3V10h-2.8V9.4H386.9z"/>
	</g>
</g>
<g>
	<path class="st1" d="M403.8,28.7v0.7H403v1.5h-0.8v-1.5h-3.1v-0.9l2.8-3.9h1.1v4.1H403.8z M402.2,28.7v-3.2H402l-2.1,3v0.2H402.2z"
		/>
	<path class="st1" d="M403.8,44v0.7H403v1.5h-0.8v-1.5h-3.1v-0.9l2.8-3.9h1.1V44H403.8z M402.2,44v-3.2H402l-2.1,3V44H402.2z"/>
	<path class="st1" d="M403.8,59.2v0.7H403v1.5h-0.8v-1.5h-3.1V59l2.8-3.9h1.1v4.1H403.8z M402.2,59.2V56H402l-2.1,3v0.2H402.2z"/>
	<path class="st1" d="M403.8,74.4v0.7H403v1.5h-0.8v-1.5h-3.1v-0.9l2.8-3.9h1.1v4.1H403.8z M402.2,74.4v-3.2H402l-2.1,3v0.2H402.2z"
		/>
	<path class="st1" d="M403.8,89.7v0.7H403v1.5h-0.8v-1.5h-3.1v-0.9l2.8-3.9h1.1v4.1H403.8z M402.2,89.7v-3.2H402l-2.1,3v0.2H402.2z"
		/>
	<g>
		<path class="st1" d="M396.7,15h1.5v-4.8H398l-1.3,0.9v-0.8l1.3-0.9h1V15h1.4v0.7h-3.7V15z"/>
		<path class="st1" d="M406.2,13.5v0.7h-0.9v1.5h-0.8v-1.5h-3.1v-0.9l2.8-3.9h1.1v4.1H406.2z M404.6,13.5v-3.2h-0.2l-2.1,3v0.2
			H404.6z"/>
	</g>
</g>
<g>
	<path class="st1" d="M422.6,27.7c0,2.3-1,3.3-2.3,3.3c-1.3,0-2.3-1-2.3-3.3s1-3.3,2.3-3.3C421.6,24.5,422.6,25.5,422.6,27.7z
		 M421.8,27.7c0-1.6-0.5-2.6-1.5-2.6c-1,0-1.5,1-1.5,2.6c0,1.6,0.5,2.6,1.5,2.6C421.3,30.3,421.8,29.3,421.8,27.7z"/>
	<path class="st1" d="M422.6,43c0,2.3-1,3.3-2.3,3.3c-1.3,0-2.3-1-2.3-3.3s1-3.3,2.3-3.3C421.6,39.7,422.6,40.7,422.6,43z M421.8,43
		c0-1.6-0.5-2.6-1.5-2.6c-1,0-1.5,1-1.5,2.6c0,1.6,0.5,2.6,1.5,2.6C421.3,45.5,421.8,44.5,421.8,43z"/>
	<path class="st1" d="M422.6,58.2c0,2.3-1,3.3-2.3,3.3c-1.3,0-2.3-1-2.3-3.3s1-3.3,2.3-3.3C421.6,54.9,422.6,56,422.6,58.2z
		 M421.8,58.2c0-1.6-0.5-2.6-1.5-2.6c-1,0-1.5,1-1.5,2.6c0,1.6,0.5,2.6,1.5,2.6C421.3,60.8,421.8,59.8,421.8,58.2z"/>
	<path class="st1" d="M422.6,73.5c0,2.3-1,3.3-2.3,3.3c-1.3,0-2.3-1-2.3-3.3s1-3.3,2.3-3.3C421.6,70.2,422.6,71.2,422.6,73.5z
		 M421.8,73.5c0-1.6-0.5-2.6-1.5-2.6c-1,0-1.5,1-1.5,2.6c0,1.6,0.5,2.6,1.5,2.6C421.3,76,421.8,75,421.8,73.5z"/>
	<path class="st1" d="M422.6,88.7c0,2.3-1,3.3-2.3,3.3c-1.3,0-2.3-1-2.3-3.3s1-3.3,2.3-3.3C421.6,85.4,422.6,86.4,422.6,88.7z
		 M421.8,88.7c0-1.6-0.5-2.6-1.5-2.6c-1,0-1.5,1-1.5,2.6c0,1.6,0.5,2.6,1.5,2.6C421.3,91.3,421.8,90.3,421.8,88.7z"/>
	<g>
		<path class="st1" d="M415.7,15h1.5v-4.8H417l-1.3,0.9v-0.8l1.3-0.9h1V15h1.4v0.7h-3.7V15z"/>
		<path class="st1" d="M424.9,13.5c0,1.4-0.9,2.3-2.2,2.3c-1.4,0-2.1-0.8-2.2-1.9h0.8c0.1,0.8,0.6,1.2,1.4,1.2
			c0.8,0,1.4-0.6,1.4-1.5c0-0.9-0.5-1.5-1.4-1.5c-0.6,0-1,0.2-1.3,0.6h-0.8l0.3-3.3h3.6V10h-3l-0.1,1.8h0.2c0.3-0.3,0.6-0.4,1.2-0.4
			C424.1,11.4,424.9,12.3,424.9,13.5z"/>
	</g>
</g>
</svg>
